<svg xmlns="http://www.w3.org/2000/svg" xmlns:xlink="http://www.w3.org/1999/xlink" width="397" zoomAndPan="magnify" viewBox="0 0 297.75 63.749997" height="85" preserveAspectRatio="xMidYMid meet" version="1.0"><defs><g/></defs><g fill="#0554bd" fill-opacity="0.4"><g transform="translate(9.289375, 41.688685)"><g><path d="M 14.1875 0.546875 C 11.8125 0.546875 9.753906 0.144531 8.015625 -0.65625 C 6.285156 -1.457031 4.945312 -2.582031 4 -4.03125 C 3.050781 -5.488281 2.566406 -7.175781 2.546875 -9.09375 L 6.265625 -9.09375 C 6.316406 -7.207031 7.066406 -5.71875 8.515625 -4.625 C 9.972656 -3.539062 11.863281 -3 14.1875 -3 C 16.269531 -3 17.925781 -3.40625 19.15625 -4.21875 C 20.382812 -5.039062 21 -6.1875 21 -7.65625 C 21 -9.039062 20.40625 -10.148438 19.21875 -10.984375 C 18.03125 -11.816406 16.097656 -12.539062 13.421875 -13.15625 C 9.773438 -14.03125 7.101562 -15.148438 5.40625 -16.515625 C 3.71875 -17.890625 2.875 -19.722656 2.875 -22.015625 C 2.875 -24.523438 3.828125 -26.515625 5.734375 -27.984375 C 7.640625 -29.453125 10.210938 -30.1875 13.453125 -30.1875 C 16.785156 -30.1875 19.414062 -29.351562 21.34375 -27.6875 C 23.28125 -26.019531 24.265625 -23.75 24.296875 -20.875 L 20.609375 -20.875 C 20.585938 -22.644531 19.929688 -24.046875 18.640625 -25.078125 C 17.359375 -26.109375 15.628906 -26.625 13.453125 -26.625 C 11.335938 -26.625 9.679688 -26.207031 8.484375 -25.375 C 7.285156 -24.539062 6.6875 -23.421875 6.6875 -22.015625 C 6.6875 -20.796875 7.242188 -19.769531 8.359375 -18.9375 C 9.472656 -18.101562 11.46875 -17.335938 14.34375 -16.640625 C 18.125 -15.703125 20.816406 -14.535156 22.421875 -13.140625 C 24.035156 -11.742188 24.84375 -9.957031 24.84375 -7.78125 C 24.84375 -5.21875 23.875 -3.1875 21.9375 -1.6875 C 20.007812 -0.195312 17.425781 0.546875 14.1875 0.546875 Z M 14.1875 0.546875 "/></g></g></g><g fill="#0554bd" fill-opacity="0.4"><g transform="translate(36.250165, 41.688685)"><g><path d="M 3.9375 0 L 3.9375 -31.328125 L 7.484375 -31.328125 L 7.484375 -19.09375 C 8.453125 -20.28125 9.597656 -21.144531 10.921875 -21.6875 C 12.242188 -22.238281 13.613281 -22.515625 15.03125 -22.515625 C 17.9375 -22.515625 20.207031 -21.601562 21.84375 -19.78125 C 23.476562 -17.96875 24.296875 -15.492188 24.296875 -12.359375 L 24.296875 0 L 20.734375 0 L 20.734375 -12.015625 C 20.734375 -14.222656 20.179688 -15.957031 19.078125 -17.21875 C 17.984375 -18.488281 16.476562 -19.125 14.5625 -19.125 C 12.5 -19.125 10.800781 -18.410156 9.46875 -16.984375 C 8.144531 -15.566406 7.484375 -13.644531 7.484375 -11.21875 L 7.484375 0 Z M 3.9375 0 "/></g></g></g><g fill="#0554bd" fill-opacity="0.4"><g transform="translate(63.634194, 41.688685)"><g><path d="M 11.125 0.34375 C 8.476562 0.34375 6.40625 -0.253906 4.90625 -1.453125 C 3.414062 -2.660156 2.671875 -4.289062 2.671875 -6.34375 C 2.671875 -8.351562 3.359375 -9.945312 4.734375 -11.125 C 6.117188 -12.3125 7.957031 -12.90625 10.25 -12.90625 L 19.21875 -12.90625 L 19.21875 -13.71875 C 19.21875 -15.4375 18.679688 -16.78125 17.609375 -17.75 C 16.535156 -18.726562 15.066406 -19.21875 13.203125 -19.21875 C 11.796875 -19.21875 10.566406 -18.898438 9.515625 -18.265625 C 8.472656 -17.628906 7.769531 -16.773438 7.40625 -15.703125 L 3.8125 -15.703125 C 4.289062 -17.816406 5.367188 -19.476562 7.046875 -20.6875 C 8.722656 -21.90625 10.757812 -22.515625 13.15625 -22.515625 C 15.082031 -22.515625 16.765625 -22.15625 18.203125 -21.4375 C 19.640625 -20.71875 20.757812 -19.71875 21.5625 -18.4375 C 22.363281 -17.15625 22.765625 -15.664062 22.765625 -13.96875 L 22.765625 0 L 19.859375 0 L 19.46875 -3.046875 C 17.46875 -0.785156 14.6875 0.34375 11.125 0.34375 Z M 6.21875 -6.390625 C 6.21875 -5.316406 6.671875 -4.457031 7.578125 -3.8125 C 8.484375 -3.164062 9.710938 -2.84375 11.265625 -2.84375 C 12.785156 -2.84375 14.132812 -3.132812 15.3125 -3.71875 C 16.5 -4.3125 17.445312 -5.128906 18.15625 -6.171875 C 18.863281 -7.222656 19.234375 -8.425781 19.265625 -9.78125 L 10.375 -9.78125 C 9.15625 -9.78125 8.15625 -9.472656 7.375 -8.859375 C 6.601562 -8.253906 6.21875 -7.429688 6.21875 -6.390625 Z M 6.21875 -6.390625 "/></g></g></g><g fill="#0554bd" fill-opacity="0.4"><g transform="translate(89.452202, 41.688685)"><g><path d="M 13.421875 0.546875 C 11.242188 0.546875 9.304688 0.046875 7.609375 -0.953125 C 5.921875 -1.953125 4.597656 -3.316406 3.640625 -5.046875 C 2.679688 -6.785156 2.203125 -8.769531 2.203125 -11 C 2.203125 -13.226562 2.679688 -15.203125 3.640625 -16.921875 C 4.597656 -18.648438 5.921875 -20.015625 7.609375 -21.015625 C 9.304688 -22.015625 11.242188 -22.515625 13.421875 -22.515625 C 15.140625 -22.515625 16.71875 -22.195312 18.15625 -21.5625 C 19.59375 -20.925781 20.804688 -20.03125 21.796875 -18.875 L 21.796875 -31.328125 L 25.359375 -31.328125 L 25.359375 0 L 22.4375 0 L 22.015625 -3.390625 C 21.023438 -2.171875 19.785156 -1.207031 18.296875 -0.5 C 16.816406 0.195312 15.191406 0.546875 13.421875 0.546875 Z M 5.75 -11 C 5.75 -9.425781 6.09375 -8.023438 6.78125 -6.796875 C 7.476562 -5.566406 8.429688 -4.601562 9.640625 -3.90625 C 10.859375 -3.21875 12.257812 -2.875 13.84375 -2.875 C 15.445312 -2.875 16.851562 -3.21875 18.0625 -3.90625 C 19.28125 -4.601562 20.226562 -5.566406 20.90625 -6.796875 C 21.582031 -8.023438 21.921875 -9.425781 21.921875 -11 C 21.921875 -12.582031 21.582031 -13.988281 20.90625 -15.21875 C 20.226562 -16.445312 19.28125 -17.40625 18.0625 -18.09375 C 16.851562 -18.78125 15.445312 -19.125 13.84375 -19.125 C 12.257812 -19.125 10.859375 -18.78125 9.640625 -18.09375 C 8.429688 -17.40625 7.476562 -16.445312 6.78125 -15.21875 C 6.09375 -13.988281 5.75 -12.582031 5.75 -11 Z M 5.75 -11 "/></g></g></g><g fill="#0554bd" fill-opacity="0.4"><g transform="translate(118.317605, 41.688685)"><g><path d="M 13.84375 0.546875 C 11.550781 0.546875 9.53125 0.0546875 7.78125 -0.921875 C 6.03125 -1.910156 4.660156 -3.28125 3.671875 -5.03125 C 2.691406 -6.78125 2.203125 -8.769531 2.203125 -11 C 2.203125 -13.257812 2.691406 -15.25 3.671875 -16.96875 C 4.660156 -18.695312 6.03125 -20.050781 7.78125 -21.03125 C 9.53125 -22.019531 11.550781 -22.515625 13.84375 -22.515625 C 16.125 -22.515625 18.140625 -22.019531 19.890625 -21.03125 C 21.640625 -20.050781 23.007812 -18.695312 24 -16.96875 C 24.988281 -15.25 25.484375 -13.257812 25.484375 -11 C 25.484375 -8.769531 24.988281 -6.78125 24 -5.03125 C 23.007812 -3.28125 21.640625 -1.910156 19.890625 -0.921875 C 18.140625 0.0546875 16.125 0.546875 13.84375 0.546875 Z M 5.75 -11 C 5.75 -9.394531 6.09375 -7.976562 6.78125 -6.75 C 7.476562 -5.519531 8.429688 -4.566406 9.640625 -3.890625 C 10.859375 -3.210938 12.257812 -2.875 13.84375 -2.875 C 15.425781 -2.875 16.820312 -3.210938 18.03125 -3.890625 C 19.25 -4.566406 20.203125 -5.519531 20.890625 -6.75 C 21.578125 -7.976562 21.921875 -9.394531 21.921875 -11 C 21.921875 -12.613281 21.578125 -14.023438 20.890625 -15.234375 C 20.203125 -16.453125 19.25 -17.40625 18.03125 -18.09375 C 16.820312 -18.78125 15.425781 -19.125 13.84375 -19.125 C 12.257812 -19.125 10.859375 -18.78125 9.640625 -18.09375 C 8.429688 -17.40625 7.476562 -16.453125 6.78125 -15.234375 C 6.09375 -14.023438 5.75 -12.613281 5.75 -11 Z M 5.75 -11 "/></g></g></g><g fill="#0554bd" fill-opacity="0.4"><g transform="translate(145.574666, 41.688685)"><g><path d="M 8.59375 0 L 0.71875 -21.96875 L 4.484375 -21.96875 L 8 -12.015625 L 10.375 -5.296875 L 12.953125 -12.015625 L 16.71875 -21.96875 L 19.984375 -21.96875 L 26.40625 -5.328125 L 28.734375 -12.015625 L 32.296875 -21.96875 L 36.015625 -21.96875 L 28.140625 0 L 24.765625 0 L 21.25 -9.0625 L 18.375 -16.71875 L 12.015625 0 Z M 8.59375 0 "/></g></g></g><g fill="#1376d0" fill-opacity="1"><g transform="translate(7.418334, 39.817644)"><g><path d="M 14.1875 0.546875 C 11.8125 0.546875 9.753906 0.144531 8.015625 -0.65625 C 6.285156 -1.457031 4.945312 -2.582031 4 -4.03125 C 3.050781 -5.488281 2.566406 -7.175781 2.546875 -9.09375 L 6.265625 -9.09375 C 6.316406 -7.207031 7.066406 -5.71875 8.515625 -4.625 C 9.972656 -3.539062 11.863281 -3 14.1875 -3 C 16.269531 -3 17.925781 -3.40625 19.15625 -4.21875 C 20.382812 -5.039062 21 -6.1875 21 -7.65625 C 21 -9.039062 20.40625 -10.148438 19.21875 -10.984375 C 18.03125 -11.816406 16.097656 -12.539062 13.421875 -13.15625 C 9.773438 -14.03125 7.101562 -15.148438 5.40625 -16.515625 C 3.71875 -17.890625 2.875 -19.722656 2.875 -22.015625 C 2.875 -24.523438 3.828125 -26.515625 5.734375 -27.984375 C 7.640625 -29.453125 10.210938 -30.1875 13.453125 -30.1875 C 16.785156 -30.1875 19.414062 -29.351562 21.34375 -27.6875 C 23.28125 -26.019531 24.265625 -23.75 24.296875 -20.875 L 20.609375 -20.875 C 20.585938 -22.644531 19.929688 -24.046875 18.640625 -25.078125 C 17.359375 -26.109375 15.628906 -26.625 13.453125 -26.625 C 11.335938 -26.625 9.679688 -26.207031 8.484375 -25.375 C 7.285156 -24.539062 6.6875 -23.421875 6.6875 -22.015625 C 6.6875 -20.796875 7.242188 -19.769531 8.359375 -18.9375 C 9.472656 -18.101562 11.46875 -17.335938 14.34375 -16.640625 C 18.125 -15.703125 20.816406 -14.535156 22.421875 -13.140625 C 24.035156 -11.742188 24.84375 -9.957031 24.84375 -7.78125 C 24.84375 -5.21875 23.875 -3.1875 21.9375 -1.6875 C 20.007812 -0.195312 17.425781 0.546875 14.1875 0.546875 Z M 14.1875 0.546875 "/></g></g></g><g fill="#1376d0" fill-opacity="1"><g transform="translate(34.379124, 39.817644)"><g><path d="M 3.9375 0 L 3.9375 -31.328125 L 7.484375 -31.328125 L 7.484375 -19.09375 C 8.453125 -20.28125 9.597656 -21.144531 10.921875 -21.6875 C 12.242188 -22.238281 13.613281 -22.515625 15.03125 -22.515625 C 17.9375 -22.515625 20.207031 -21.601562 21.84375 -19.78125 C 23.476562 -17.96875 24.296875 -15.492188 24.296875 -12.359375 L 24.296875 0 L 20.734375 0 L 20.734375 -12.015625 C 20.734375 -14.222656 20.179688 -15.957031 19.078125 -17.21875 C 17.984375 -18.488281 16.476562 -19.125 14.5625 -19.125 C 12.5 -19.125 10.800781 -18.410156 9.46875 -16.984375 C 8.144531 -15.566406 7.484375 -13.644531 7.484375 -11.21875 L 7.484375 0 Z M 3.9375 0 "/></g></g></g><g fill="#1376d0" fill-opacity="1"><g transform="translate(61.763153, 39.817644)"><g><path d="M 11.125 0.34375 C 8.476562 0.34375 6.40625 -0.253906 4.90625 -1.453125 C 3.414062 -2.660156 2.671875 -4.289062 2.671875 -6.34375 C 2.671875 -8.351562 3.359375 -9.945312 4.734375 -11.125 C 6.117188 -12.3125 7.957031 -12.90625 10.25 -12.90625 L 19.21875 -12.90625 L 19.21875 -13.71875 C 19.21875 -15.4375 18.679688 -16.78125 17.609375 -17.75 C 16.535156 -18.726562 15.066406 -19.21875 13.203125 -19.21875 C 11.796875 -19.21875 10.566406 -18.898438 9.515625 -18.265625 C 8.472656 -17.628906 7.769531 -16.773438 7.40625 -15.703125 L 3.8125 -15.703125 C 4.289062 -17.816406 5.367188 -19.476562 7.046875 -20.6875 C 8.722656 -21.90625 10.757812 -22.515625 13.15625 -22.515625 C 15.082031 -22.515625 16.765625 -22.15625 18.203125 -21.4375 C 19.640625 -20.71875 20.757812 -19.71875 21.5625 -18.4375 C 22.363281 -17.15625 22.765625 -15.664062 22.765625 -13.96875 L 22.765625 0 L 19.859375 0 L 19.46875 -3.046875 C 17.46875 -0.785156 14.6875 0.34375 11.125 0.34375 Z M 6.21875 -6.390625 C 6.21875 -5.316406 6.671875 -4.457031 7.578125 -3.8125 C 8.484375 -3.164062 9.710938 -2.84375 11.265625 -2.84375 C 12.785156 -2.84375 14.132812 -3.132812 15.3125 -3.71875 C 16.5 -4.3125 17.445312 -5.128906 18.15625 -6.171875 C 18.863281 -7.222656 19.234375 -8.425781 19.265625 -9.78125 L 10.375 -9.78125 C 9.15625 -9.78125 8.15625 -9.472656 7.375 -8.859375 C 6.601562 -8.253906 6.21875 -7.429688 6.21875 -6.390625 Z M 6.21875 -6.390625 "/></g></g></g><g fill="#1376d0" fill-opacity="1"><g transform="translate(87.58116, 39.817644)"><g><path d="M 13.421875 0.546875 C 11.242188 0.546875 9.304688 0.046875 7.609375 -0.953125 C 5.921875 -1.953125 4.597656 -3.316406 3.640625 -5.046875 C 2.679688 -6.785156 2.203125 -8.769531 2.203125 -11 C 2.203125 -13.226562 2.679688 -15.203125 3.640625 -16.921875 C 4.597656 -18.648438 5.921875 -20.015625 7.609375 -21.015625 C 9.304688 -22.015625 11.242188 -22.515625 13.421875 -22.515625 C 15.140625 -22.515625 16.71875 -22.195312 18.15625 -21.5625 C 19.59375 -20.925781 20.804688 -20.03125 21.796875 -18.875 L 21.796875 -31.328125 L 25.359375 -31.328125 L 25.359375 0 L 22.4375 0 L 22.015625 -3.390625 C 21.023438 -2.171875 19.785156 -1.207031 18.296875 -0.5 C 16.816406 0.195312 15.191406 0.546875 13.421875 0.546875 Z M 5.75 -11 C 5.75 -9.425781 6.09375 -8.023438 6.78125 -6.796875 C 7.476562 -5.566406 8.429688 -4.601562 9.640625 -3.90625 C 10.859375 -3.21875 12.257812 -2.875 13.84375 -2.875 C 15.445312 -2.875 16.851562 -3.21875 18.0625 -3.90625 C 19.28125 -4.601562 20.226562 -5.566406 20.90625 -6.796875 C 21.582031 -8.023438 21.921875 -9.425781 21.921875 -11 C 21.921875 -12.582031 21.582031 -13.988281 20.90625 -15.21875 C 20.226562 -16.445312 19.28125 -17.40625 18.0625 -18.09375 C 16.851562 -18.78125 15.445312 -19.125 13.84375 -19.125 C 12.257812 -19.125 10.859375 -18.78125 9.640625 -18.09375 C 8.429688 -17.40625 7.476562 -16.445312 6.78125 -15.21875 C 6.09375 -13.988281 5.75 -12.582031 5.75 -11 Z M 5.75 -11 "/></g></g></g><g fill="#1376d0" fill-opacity="1"><g transform="translate(116.446564, 39.817644)"><g><path d="M 13.84375 0.546875 C 11.550781 0.546875 9.53125 0.0546875 7.78125 -0.921875 C 6.03125 -1.910156 4.660156 -3.28125 3.671875 -5.03125 C 2.691406 -6.78125 2.203125 -8.769531 2.203125 -11 C 2.203125 -13.257812 2.691406 -15.25 3.671875 -16.96875 C 4.660156 -18.695312 6.03125 -20.050781 7.78125 -21.03125 C 9.53125 -22.019531 11.550781 -22.515625 13.84375 -22.515625 C 16.125 -22.515625 18.140625 -22.019531 19.890625 -21.03125 C 21.640625 -20.050781 23.007812 -18.695312 24 -16.96875 C 24.988281 -15.25 25.484375 -13.257812 25.484375 -11 C 25.484375 -8.769531 24.988281 -6.78125 24 -5.03125 C 23.007812 -3.28125 21.640625 -1.910156 19.890625 -0.921875 C 18.140625 0.0546875 16.125 0.546875 13.84375 0.546875 Z M 5.75 -11 C 5.75 -9.394531 6.09375 -7.976562 6.78125 -6.75 C 7.476562 -5.519531 8.429688 -4.566406 9.640625 -3.890625 C 10.859375 -3.210938 12.257812 -2.875 13.84375 -2.875 C 15.425781 -2.875 16.820312 -3.210938 18.03125 -3.890625 C 19.25 -4.566406 20.203125 -5.519531 20.890625 -6.75 C 21.578125 -7.976562 21.921875 -9.394531 21.921875 -11 C 21.921875 -12.613281 21.578125 -14.023438 20.890625 -15.234375 C 20.203125 -16.453125 19.25 -17.40625 18.03125 -18.09375 C 16.820312 -18.78125 15.425781 -19.125 13.84375 -19.125 C 12.257812 -19.125 10.859375 -18.78125 9.640625 -18.09375 C 8.429688 -17.40625 7.476562 -16.453125 6.78125 -15.234375 C 6.09375 -14.023438 5.75 -12.613281 5.75 -11 Z M 5.75 -11 "/></g></g></g><g fill="#1376d0" fill-opacity="1"><g transform="translate(143.703625, 39.817644)"><g><path d="M 8.59375 0 L 0.71875 -21.96875 L 4.484375 -21.96875 L 8 -12.015625 L 10.375 -5.296875 L 12.953125 -12.015625 L 16.71875 -21.96875 L 19.984375 -21.96875 L 26.40625 -5.328125 L 28.734375 -12.015625 L 32.296875 -21.96875 L 36.015625 -21.96875 L 28.140625 0 L 24.765625 0 L 21.25 -9.0625 L 18.375 -16.71875 L 12.015625 0 Z M 8.59375 0 "/></g></g></g><g fill="#ff914d" fill-opacity="0.4"><g transform="translate(185.462609, 41.688685)"><g><path d="M 11.46875 0 L 11.46875 -26.078125 L 1.4375 -26.078125 L 1.4375 -29.625 L 25.1875 -29.625 L 25.1875 -26.078125 L 15.203125 -26.078125 L 15.203125 0 Z M 11.46875 0 "/></g></g></g><g fill="#ff914d" fill-opacity="0.4"><g transform="translate(211.70387, 41.688685)"><g><path d="M 13.453125 0.546875 C 11.253906 0.546875 9.304688 0.0625 7.609375 -0.90625 C 5.921875 -1.882812 4.597656 -3.25 3.640625 -5 C 2.679688 -6.75 2.203125 -8.75 2.203125 -11 C 2.203125 -13.257812 2.679688 -15.253906 3.640625 -16.984375 C 4.597656 -18.722656 5.929688 -20.078125 7.640625 -21.046875 C 9.347656 -22.023438 11.300781 -22.515625 13.5 -22.515625 C 15.84375 -22.515625 17.875 -21.960938 19.59375 -20.859375 C 21.320312 -19.765625 22.644531 -18.25 23.5625 -16.3125 C 24.476562 -14.382812 24.890625 -12.132812 24.796875 -9.5625 L 5.796875 -9.5625 C 6.078125 -7.5 6.910156 -5.851562 8.296875 -4.625 C 9.679688 -3.40625 11.414062 -2.796875 13.5 -2.796875 C 14.9375 -2.796875 16.25 -3.101562 17.4375 -3.71875 C 18.625 -4.34375 19.554688 -5.234375 20.234375 -6.390625 L 24.25 -6.390625 C 23.375 -4.242188 21.976562 -2.550781 20.0625 -1.3125 C 18.144531 -0.0703125 15.941406 0.546875 13.453125 0.546875 Z M 5.84375 -12.703125 L 21.25 -12.703125 C 20.882812 -14.703125 20.003906 -16.28125 18.609375 -17.4375 C 17.210938 -18.59375 15.507812 -19.171875 13.5 -19.171875 C 11.46875 -19.171875 9.757812 -18.578125 8.375 -17.390625 C 7 -16.210938 6.15625 -14.648438 5.84375 -12.703125 Z M 5.84375 -12.703125 "/></g></g></g><g fill="#ff914d" fill-opacity="0.4"><g transform="translate(238.199086, 41.688685)"><g><path d="M 13.5 0.546875 C 11.300781 0.546875 9.351562 0.0546875 7.65625 -0.921875 C 5.96875 -1.910156 4.632812 -3.28125 3.65625 -5.03125 C 2.6875 -6.78125 2.203125 -8.769531 2.203125 -11 C 2.203125 -13.226562 2.6875 -15.210938 3.65625 -16.953125 C 4.632812 -18.691406 5.96875 -20.050781 7.65625 -21.03125 C 9.351562 -22.019531 11.300781 -22.515625 13.5 -22.515625 C 15.332031 -22.515625 17.007812 -22.164062 18.53125 -21.46875 C 20.0625 -20.78125 21.347656 -19.820312 22.390625 -18.59375 C 23.429688 -17.375 24.140625 -15.929688 24.515625 -14.265625 L 20.90625 -14.265625 C 20.257812 -15.785156 19.28125 -16.972656 17.96875 -17.828125 C 16.65625 -18.691406 15.164062 -19.125 13.5 -19.125 C 12.007812 -19.125 10.675781 -18.78125 9.5 -18.09375 C 8.332031 -17.40625 7.414062 -16.445312 6.75 -15.21875 C 6.082031 -13.988281 5.75 -12.582031 5.75 -11 C 5.75 -9.425781 6.082031 -8.023438 6.75 -6.796875 C 7.414062 -5.566406 8.332031 -4.601562 9.5 -3.90625 C 10.675781 -3.21875 12.007812 -2.875 13.5 -2.875 C 15.28125 -2.875 16.835938 -3.347656 18.171875 -4.296875 C 19.515625 -5.242188 20.457031 -6.503906 21 -8.078125 L 24.765625 -8.078125 C 24.023438 -5.429688 22.65625 -3.332031 20.65625 -1.78125 C 18.65625 -0.226562 16.269531 0.546875 13.5 0.546875 Z M 13.5 0.546875 "/></g></g></g><g fill="#ff914d" fill-opacity="0.4"><g transform="translate(264.609651, 41.688685)"><g><path d="M 3.9375 0 L 3.9375 -31.328125 L 7.484375 -31.328125 L 7.484375 -19.09375 C 8.453125 -20.28125 9.597656 -21.144531 10.921875 -21.6875 C 12.242188 -22.238281 13.613281 -22.515625 15.03125 -22.515625 C 17.9375 -22.515625 20.207031 -21.601562 21.84375 -19.78125 C 23.476562 -17.96875 24.296875 -15.492188 24.296875 -12.359375 L 24.296875 0 L 20.734375 0 L 20.734375 -12.015625 C 20.734375 -14.222656 20.179688 -15.957031 19.078125 -17.21875 C 17.984375 -18.488281 16.476562 -19.125 14.5625 -19.125 C 12.5 -19.125 10.800781 -18.410156 9.46875 -16.984375 C 8.144531 -15.566406 7.484375 -13.644531 7.484375 -11.21875 L 7.484375 0 Z M 3.9375 0 "/></g></g></g><g fill="#ff914d" fill-opacity="1"><g transform="translate(183.591563, 39.817644)"><g><path d="M 11.46875 0 L 11.46875 -26.078125 L 1.4375 -26.078125 L 1.4375 -29.625 L 25.1875 -29.625 L 25.1875 -26.078125 L 15.203125 -26.078125 L 15.203125 0 Z M 11.46875 0 "/></g></g></g><g fill="#ff914d" fill-opacity="1"><g transform="translate(209.832823, 39.817644)"><g><path d="M 13.453125 0.546875 C 11.253906 0.546875 9.304688 0.0625 7.609375 -0.90625 C 5.921875 -1.882812 4.597656 -3.25 3.640625 -5 C 2.679688 -6.75 2.203125 -8.75 2.203125 -11 C 2.203125 -13.257812 2.679688 -15.253906 3.640625 -16.984375 C 4.597656 -18.722656 5.929688 -20.078125 7.640625 -21.046875 C 9.347656 -22.023438 11.300781 -22.515625 13.5 -22.515625 C 15.84375 -22.515625 17.875 -21.960938 19.59375 -20.859375 C 21.320312 -19.765625 22.644531 -18.25 23.5625 -16.3125 C 24.476562 -14.382812 24.890625 -12.132812 24.796875 -9.5625 L 5.796875 -9.5625 C 6.078125 -7.5 6.910156 -5.851562 8.296875 -4.625 C 9.679688 -3.40625 11.414062 -2.796875 13.5 -2.796875 C 14.9375 -2.796875 16.25 -3.101562 17.4375 -3.71875 C 18.625 -4.34375 19.554688 -5.234375 20.234375 -6.390625 L 24.25 -6.390625 C 23.375 -4.242188 21.976562 -2.550781 20.0625 -1.3125 C 18.144531 -0.0703125 15.941406 0.546875 13.453125 0.546875 Z M 5.84375 -12.703125 L 21.25 -12.703125 C 20.882812 -14.703125 20.003906 -16.28125 18.609375 -17.4375 C 17.210938 -18.59375 15.507812 -19.171875 13.5 -19.171875 C 11.46875 -19.171875 9.757812 -18.578125 8.375 -17.390625 C 7 -16.210938 6.15625 -14.648438 5.84375 -12.703125 Z M 5.84375 -12.703125 "/></g></g></g><g fill="#ff914d" fill-opacity="1"><g transform="translate(236.328039, 39.817644)"><g><path d="M 13.5 0.546875 C 11.300781 0.546875 9.351562 0.0546875 7.65625 -0.921875 C 5.96875 -1.910156 4.632812 -3.28125 3.65625 -5.03125 C 2.6875 -6.78125 2.203125 -8.769531 2.203125 -11 C 2.203125 -13.226562 2.6875 -15.210938 3.65625 -16.953125 C 4.632812 -18.691406 5.96875 -20.050781 7.65625 -21.03125 C 9.351562 -22.019531 11.300781 -22.515625 13.5 -22.515625 C 15.332031 -22.515625 17.007812 -22.164062 18.53125 -21.46875 C 20.0625 -20.78125 21.347656 -19.820312 22.390625 -18.59375 C 23.429688 -17.375 24.140625 -15.929688 24.515625 -14.265625 L 20.90625 -14.265625 C 20.257812 -15.785156 19.28125 -16.972656 17.96875 -17.828125 C 16.65625 -18.691406 15.164062 -19.125 13.5 -19.125 C 12.007812 -19.125 10.675781 -18.78125 9.5 -18.09375 C 8.332031 -17.40625 7.414062 -16.445312 6.75 -15.21875 C 6.082031 -13.988281 5.75 -12.582031 5.75 -11 C 5.75 -9.425781 6.082031 -8.023438 6.75 -6.796875 C 7.414062 -5.566406 8.332031 -4.601562 9.5 -3.90625 C 10.675781 -3.21875 12.007812 -2.875 13.5 -2.875 C 15.28125 -2.875 16.835938 -3.347656 18.171875 -4.296875 C 19.515625 -5.242188 20.457031 -6.503906 21 -8.078125 L 24.765625 -8.078125 C 24.023438 -5.429688 22.65625 -3.332031 20.65625 -1.78125 C 18.65625 -0.226562 16.269531 0.546875 13.5 0.546875 Z M 13.5 0.546875 "/></g></g></g><g fill="#ff914d" fill-opacity="1"><g transform="translate(262.738604, 39.817644)"><g><path d="M 3.9375 0 L 3.9375 -31.328125 L 7.484375 -31.328125 L 7.484375 -19.09375 C 8.453125 -20.28125 9.597656 -21.144531 10.921875 -21.6875 C 12.242188 -22.238281 13.613281 -22.515625 15.03125 -22.515625 C 17.9375 -22.515625 20.207031 -21.601562 21.84375 -19.78125 C 23.476562 -17.96875 24.296875 -15.492188 24.296875 -12.359375 L 24.296875 0 L 20.734375 0 L 20.734375 -12.015625 C 20.734375 -14.222656 20.179688 -15.957031 19.078125 -17.21875 C 17.984375 -18.488281 16.476562 -19.125 14.5625 -19.125 C 12.5 -19.125 10.800781 -18.410156 9.46875 -16.984375 C 8.144531 -15.566406 7.484375 -13.644531 7.484375 -11.21875 L 7.484375 0 Z M 3.9375 0 "/></g></g></g><g fill="#0554bd" fill-opacity="0.4"><g transform="translate(111.42641, 61.173067)"><g><path d="M 3.1875 0.140625 C 2.625 0.140625 2.132812 0.046875 1.71875 -0.140625 C 1.300781 -0.328125 0.976562 -0.59375 0.75 -0.9375 C 0.53125 -1.289062 0.421875 -1.703125 0.421875 -2.171875 L 1.953125 -2.171875 C 1.953125 -1.847656 2.0625 -1.59375 2.28125 -1.40625 C 2.507812 -1.226562 2.8125 -1.140625 3.1875 -1.140625 C 3.507812 -1.140625 3.765625 -1.203125 3.953125 -1.328125 C 4.140625 -1.453125 4.234375 -1.628906 4.234375 -1.859375 C 4.234375 -2.097656 4.117188 -2.289062 3.890625 -2.4375 C 3.660156 -2.59375 3.304688 -2.722656 2.828125 -2.828125 C 2.035156 -2.992188 1.445312 -3.25 1.0625 -3.59375 C 0.675781 -3.9375 0.484375 -4.382812 0.484375 -4.9375 C 0.484375 -5.5625 0.707031 -6.050781 1.15625 -6.40625 C 1.613281 -6.769531 2.238281 -6.953125 3.03125 -6.953125 C 3.5625 -6.953125 4.023438 -6.859375 4.421875 -6.671875 C 4.816406 -6.484375 5.125 -6.222656 5.34375 -5.890625 C 5.5625 -5.554688 5.671875 -5.160156 5.671875 -4.703125 L 4.1875 -4.703125 C 4.1875 -5.003906 4.082031 -5.242188 3.875 -5.421875 C 3.675781 -5.597656 3.398438 -5.6875 3.046875 -5.6875 C 2.722656 -5.6875 2.46875 -5.625 2.28125 -5.5 C 2.09375 -5.375 2 -5.195312 2 -4.96875 C 2 -4.757812 2.101562 -4.582031 2.3125 -4.4375 C 2.519531 -4.289062 2.878906 -4.160156 3.390625 -4.046875 C 4.242188 -3.835938 4.859375 -3.5625 5.234375 -3.21875 C 5.609375 -2.882812 5.796875 -2.453125 5.796875 -1.921875 C 5.796875 -1.273438 5.5625 -0.769531 5.09375 -0.40625 C 4.632812 -0.0390625 4 0.140625 3.1875 0.140625 Z M 3.1875 0.140625 "/></g></g></g><g fill="#0554bd" fill-opacity="0.4"><g transform="translate(125.440213, 61.173067)"><g><path d="M 2.453125 0 L 2.453125 -5.359375 L 0.296875 -5.359375 L 0.296875 -6.8125 L 6.15625 -6.8125 L 6.15625 -5.359375 L 4 -5.359375 L 4 0 Z M 2.453125 0 "/></g></g></g><g fill="#0554bd" fill-opacity="0.4"><g transform="translate(139.667812, 61.173067)"><g><path d="M 3.609375 0.140625 C 3.015625 0.140625 2.503906 0.0195312 2.078125 -0.21875 C 1.648438 -0.457031 1.320312 -0.796875 1.09375 -1.234375 C 0.863281 -1.671875 0.75 -2.191406 0.75 -2.796875 L 0.75 -6.8125 L 2.296875 -6.8125 L 2.296875 -2.90625 C 2.296875 -1.851562 2.734375 -1.328125 3.609375 -1.328125 C 4.472656 -1.328125 4.90625 -1.851562 4.90625 -2.90625 L 4.90625 -6.8125 L 6.453125 -6.8125 L 6.453125 -2.796875 C 6.453125 -2.191406 6.335938 -1.671875 6.109375 -1.234375 C 5.878906 -0.796875 5.550781 -0.457031 5.125 -0.21875 C 4.695312 0.0195312 4.191406 0.140625 3.609375 0.140625 Z M 3.609375 0.140625 "/></g></g></g><g fill="#0554bd" fill-opacity="0.4"><g transform="translate(154.643673, 61.173067)"><g><path d="M 0.8125 0 L 0.8125 -6.8125 L 3.515625 -6.8125 C 4.234375 -6.8125 4.859375 -6.664062 5.390625 -6.375 C 5.929688 -6.09375 6.351562 -5.695312 6.65625 -5.1875 C 6.957031 -4.675781 7.109375 -4.082031 7.109375 -3.40625 C 7.109375 -2.726562 6.957031 -2.132812 6.65625 -1.625 C 6.351562 -1.113281 5.929688 -0.710938 5.390625 -0.421875 C 4.859375 -0.140625 4.234375 0 3.515625 0 Z M 2.359375 -1.421875 L 3.484375 -1.421875 C 3.890625 -1.421875 4.242188 -1.503906 4.546875 -1.671875 C 4.847656 -1.835938 5.082031 -2.066406 5.25 -2.359375 C 5.425781 -2.660156 5.515625 -3.007812 5.515625 -3.40625 C 5.515625 -3.8125 5.425781 -4.160156 5.25 -4.453125 C 5.082031 -4.742188 4.84375 -4.972656 4.53125 -5.140625 C 4.226562 -5.304688 3.875 -5.390625 3.46875 -5.390625 L 2.359375 -5.390625 Z M 2.359375 -1.421875 "/></g></g></g><g fill="#0554bd" fill-opacity="0.4"><g transform="translate(169.930509, 61.173067)"><g><path d="M 0.8125 0 L 0.8125 -6.8125 L 2.359375 -6.8125 L 2.359375 0 Z M 0.8125 0 "/></g></g></g><g fill="#0554bd" fill-opacity="0.4"><g transform="translate(180.892923, 61.173067)"><g><path d="M 4.046875 0.140625 C 3.335938 0.140625 2.707031 -0.0078125 2.15625 -0.3125 C 1.613281 -0.613281 1.1875 -1.03125 0.875 -1.5625 C 0.570312 -2.09375 0.421875 -2.707031 0.421875 -3.40625 C 0.421875 -4.101562 0.570312 -4.71875 0.875 -5.25 C 1.1875 -5.78125 1.613281 -6.195312 2.15625 -6.5 C 2.707031 -6.800781 3.335938 -6.953125 4.046875 -6.953125 C 4.765625 -6.953125 5.394531 -6.800781 5.9375 -6.5 C 6.476562 -6.195312 6.90625 -5.78125 7.21875 -5.25 C 7.53125 -4.71875 7.6875 -4.101562 7.6875 -3.40625 C 7.6875 -2.707031 7.53125 -2.09375 7.21875 -1.5625 C 6.90625 -1.03125 6.476562 -0.613281 5.9375 -0.3125 C 5.394531 -0.0078125 4.765625 0.140625 4.046875 0.140625 Z M 2 -3.40625 C 2 -3 2.082031 -2.640625 2.25 -2.328125 C 2.425781 -2.015625 2.671875 -1.769531 2.984375 -1.59375 C 3.296875 -1.414062 3.648438 -1.328125 4.046875 -1.328125 C 4.453125 -1.328125 4.8125 -1.414062 5.125 -1.59375 C 5.4375 -1.769531 5.675781 -2.015625 5.84375 -2.328125 C 6.019531 -2.640625 6.109375 -3 6.109375 -3.40625 C 6.109375 -3.8125 6.019531 -4.171875 5.84375 -4.484375 C 5.675781 -4.796875 5.4375 -5.039062 5.125 -5.21875 C 4.8125 -5.394531 4.453125 -5.484375 4.046875 -5.484375 C 3.648438 -5.484375 3.296875 -5.394531 2.984375 -5.21875 C 2.671875 -5.039062 2.425781 -4.796875 2.25 -4.484375 C 2.082031 -4.171875 2 -3.8125 2 -3.40625 Z M 2 -3.40625 "/></g></g></g><g fill="#1376d0" fill-opacity="1"><g transform="translate(110.996363, 60.74302)"><g><path d="M 3.1875 0.140625 C 2.625 0.140625 2.132812 0.046875 1.71875 -0.140625 C 1.300781 -0.328125 0.976562 -0.59375 0.75 -0.9375 C 0.53125 -1.289062 0.421875 -1.703125 0.421875 -2.171875 L 1.953125 -2.171875 C 1.953125 -1.847656 2.0625 -1.59375 2.28125 -1.40625 C 2.507812 -1.226562 2.8125 -1.140625 3.1875 -1.140625 C 3.507812 -1.140625 3.765625 -1.203125 3.953125 -1.328125 C 4.140625 -1.453125 4.234375 -1.628906 4.234375 -1.859375 C 4.234375 -2.097656 4.117188 -2.289062 3.890625 -2.4375 C 3.660156 -2.59375 3.304688 -2.722656 2.828125 -2.828125 C 2.035156 -2.992188 1.445312 -3.25 1.0625 -3.59375 C 0.675781 -3.9375 0.484375 -4.382812 0.484375 -4.9375 C 0.484375 -5.5625 0.707031 -6.050781 1.15625 -6.40625 C 1.613281 -6.769531 2.238281 -6.953125 3.03125 -6.953125 C 3.5625 -6.953125 4.023438 -6.859375 4.421875 -6.671875 C 4.816406 -6.484375 5.125 -6.222656 5.34375 -5.890625 C 5.5625 -5.554688 5.671875 -5.160156 5.671875 -4.703125 L 4.1875 -4.703125 C 4.1875 -5.003906 4.082031 -5.242188 3.875 -5.421875 C 3.675781 -5.597656 3.398438 -5.6875 3.046875 -5.6875 C 2.722656 -5.6875 2.46875 -5.625 2.28125 -5.5 C 2.09375 -5.375 2 -5.195312 2 -4.96875 C 2 -4.757812 2.101562 -4.582031 2.3125 -4.4375 C 2.519531 -4.289062 2.878906 -4.160156 3.390625 -4.046875 C 4.242188 -3.835938 4.859375 -3.5625 5.234375 -3.21875 C 5.609375 -2.882812 5.796875 -2.453125 5.796875 -1.921875 C 5.796875 -1.273438 5.5625 -0.769531 5.09375 -0.40625 C 4.632812 -0.0390625 4 0.140625 3.1875 0.140625 Z M 3.1875 0.140625 "/></g></g></g><g fill="#1376d0" fill-opacity="1"><g transform="translate(125.010167, 60.74302)"><g><path d="M 2.453125 0 L 2.453125 -5.359375 L 0.296875 -5.359375 L 0.296875 -6.8125 L 6.15625 -6.8125 L 6.15625 -5.359375 L 4 -5.359375 L 4 0 Z M 2.453125 0 "/></g></g></g><g fill="#1376d0" fill-opacity="1"><g transform="translate(139.237765, 60.74302)"><g><path d="M 3.609375 0.140625 C 3.015625 0.140625 2.503906 0.0195312 2.078125 -0.21875 C 1.648438 -0.457031 1.320312 -0.796875 1.09375 -1.234375 C 0.863281 -1.671875 0.75 -2.191406 0.75 -2.796875 L 0.75 -6.8125 L 2.296875 -6.8125 L 2.296875 -2.90625 C 2.296875 -1.851562 2.734375 -1.328125 3.609375 -1.328125 C 4.472656 -1.328125 4.90625 -1.851562 4.90625 -2.90625 L 4.90625 -6.8125 L 6.453125 -6.8125 L 6.453125 -2.796875 C 6.453125 -2.191406 6.335938 -1.671875 6.109375 -1.234375 C 5.878906 -0.796875 5.550781 -0.457031 5.125 -0.21875 C 4.695312 0.0195312 4.191406 0.140625 3.609375 0.140625 Z M 3.609375 0.140625 "/></g></g></g><g fill="#1376d0" fill-opacity="1"><g transform="translate(154.213626, 60.74302)"><g><path d="M 0.8125 0 L 0.8125 -6.8125 L 3.515625 -6.8125 C 4.234375 -6.8125 4.859375 -6.664062 5.390625 -6.375 C 5.929688 -6.09375 6.351562 -5.695312 6.65625 -5.1875 C 6.957031 -4.675781 7.109375 -4.082031 7.109375 -3.40625 C 7.109375 -2.726562 6.957031 -2.132812 6.65625 -1.625 C 6.351562 -1.113281 5.929688 -0.710938 5.390625 -0.421875 C 4.859375 -0.140625 4.234375 0 3.515625 0 Z M 2.359375 -1.421875 L 3.484375 -1.421875 C 3.890625 -1.421875 4.242188 -1.503906 4.546875 -1.671875 C 4.847656 -1.835938 5.082031 -2.066406 5.25 -2.359375 C 5.425781 -2.660156 5.515625 -3.007812 5.515625 -3.40625 C 5.515625 -3.8125 5.425781 -4.160156 5.25 -4.453125 C 5.082031 -4.742188 4.84375 -4.972656 4.53125 -5.140625 C 4.226562 -5.304688 3.875 -5.390625 3.46875 -5.390625 L 2.359375 -5.390625 Z M 2.359375 -1.421875 "/></g></g></g><g fill="#1376d0" fill-opacity="1"><g transform="translate(169.500462, 60.74302)"><g><path d="M 0.8125 0 L 0.8125 -6.8125 L 2.359375 -6.8125 L 2.359375 0 Z M 0.8125 0 "/></g></g></g><g fill="#1376d0" fill-opacity="1"><g transform="translate(180.462876, 60.74302)"><g><path d="M 4.046875 0.140625 C 3.335938 0.140625 2.707031 -0.0078125 2.15625 -0.3125 C 1.613281 -0.613281 1.1875 -1.03125 0.875 -1.5625 C 0.570312 -2.09375 0.421875 -2.707031 0.421875 -3.40625 C 0.421875 -4.101562 0.570312 -4.71875 0.875 -5.25 C 1.1875 -5.78125 1.613281 -6.195312 2.15625 -6.5 C 2.707031 -6.800781 3.335938 -6.953125 4.046875 -6.953125 C 4.765625 -6.953125 5.394531 -6.800781 5.9375 -6.5 C 6.476562 -6.195312 6.90625 -5.78125 7.21875 -5.25 C 7.53125 -4.71875 7.6875 -4.101562 7.6875 -3.40625 C 7.6875 -2.707031 7.53125 -2.09375 7.21875 -1.5625 C 6.90625 -1.03125 6.476562 -0.613281 5.9375 -0.3125 C 5.394531 -0.0078125 4.765625 0.140625 4.046875 0.140625 Z M 2 -3.40625 C 2 -3 2.082031 -2.640625 2.25 -2.328125 C 2.425781 -2.015625 2.671875 -1.769531 2.984375 -1.59375 C 3.296875 -1.414062 3.648438 -1.328125 4.046875 -1.328125 C 4.453125 -1.328125 4.8125 -1.414062 5.125 -1.59375 C 5.4375 -1.769531 5.675781 -2.015625 5.84375 -2.328125 C 6.019531 -2.640625 6.109375 -3 6.109375 -3.40625 C 6.109375 -3.8125 6.019531 -4.171875 5.84375 -4.484375 C 5.675781 -4.796875 5.4375 -5.039062 5.125 -5.21875 C 4.8125 -5.394531 4.453125 -5.484375 4.046875 -5.484375 C 3.648438 -5.484375 3.296875 -5.394531 2.984375 -5.21875 C 2.671875 -5.039062 2.425781 -4.796875 2.25 -4.484375 C 2.082031 -4.171875 2 -3.8125 2 -3.40625 Z M 2 -3.40625 "/></g></g></g></svg>